<svg xmlns="http://www.w3.org/2000/svg" width="172.472" height="101.695" viewBox="0 0 172.472 101.695">
  <g id="Group_892" data-name="Group 892" transform="translate(-881.5 383.5)">
    <path id="Path_1" data-name="Path 1" d="M80.006,53.728H50.78V39.071c-1.593-.694-3.839-1.853-3.941-1.906-.207-.1-5.557-2.664-6.189-8.084C40.079,24.183,43.563,18.705,51,12.8l.367-.291.367.291c7.442,5.9,10.925,11.383,10.354,16.282-.632,5.419-5.982,7.987-6.209,8.093l-.5-1.069c.05-.023,4.99-2.407,5.539-7.171.506-4.385-2.705-9.4-9.548-14.916-6.843,5.514-10.055,10.531-9.549,14.916.55,4.764,5.49,7.148,5.54,7.171s2.692,1.39,4.235,2.029l.364.151v14.26H78.825V9.067h9.5V0h39.636V42.926h27.448v1.181h-28.63V1.181H89.51V9.067h28.95V48.921H88.329V10.248H80.006Zm9.5-5.988h27.769V10.249H89.51Z" transform="translate(869.735 -383)" fill="#fffbf5" stroke="#fff" stroke-width="1"/>
    <path id="Path_2" data-name="Path 2" d="M11.8,102.485a7.284,7.284,0,0,1,0,9.935,6.655,6.655,0,0,1-4.922,1.967,6.654,6.654,0,0,1-4.921-1.967,7.284,7.284,0,0,1,0-9.935,6.656,6.656,0,0,1,4.921-1.966,6.657,6.657,0,0,1,4.922,1.966m-.979,9a6.236,6.236,0,0,0,0-8.072,5.016,5.016,0,0,0-3.943-1.669,5.016,5.016,0,0,0-3.942,1.669,6.236,6.236,0,0,0,0,8.072,5.014,5.014,0,0,0,3.942,1.668,5.014,5.014,0,0,0,3.943-1.668" transform="translate(882 -413.374)" fill="#fffbf5" stroke="#fff" stroke-width="1"/>
    <path id="Path_3" data-name="Path 3" d="M30.608,102.122l-1.175.913a2.9,2.9,0,0,0-2.553-1.287,3.268,3.268,0,0,0-1.976.611,2.045,2.045,0,0,0-.839,1.76,1.908,1.908,0,0,0,.7,1.546,5.253,5.253,0,0,0,1.684.915l1.985.673a3.75,3.75,0,0,1,1.7,1.168,3.221,3.221,0,0,1,.7,2.145,3.359,3.359,0,0,1-1.333,2.768,4.732,4.732,0,0,1-3.01,1.054,4.836,4.836,0,0,1-4.157-1.957l1.211-.876a3.477,3.477,0,0,0,4.959.951,2.077,2.077,0,0,0,.876-1.752,2.1,2.1,0,0,0-.5-1.444,2.919,2.919,0,0,0-1.248-.828l-1.632-.569q-.886-.309-1.632-.645a2.925,2.925,0,0,1-1.248-1.1,3.383,3.383,0,0,1-.5-1.9,3.3,3.3,0,0,1,1.259-2.777,4.786,4.786,0,0,1,3.01-.969,4.7,4.7,0,0,1,3.728,1.6" transform="translate(875.252 -413.374)" fill="#fffbf5" stroke="#fff" stroke-width="1"/>
    <rect id="Rectangle_1" data-name="Rectangle 1" width="1.342" height="13.198" transform="translate(908.805 -312.52)" fill="#fffbf5" stroke="#fff" stroke-width="1"/>
    <path id="Path_4" data-name="Path 4" d="M46.806,107.952v5.015h7.065v1.23H45.464V101h8.183v1.23H46.806v4.493H53.2v1.23Z" transform="translate(868.262 -413.52)" fill="#fffbf5" stroke="#fff" stroke-width="1"/>
    <path id="Path_5" data-name="Path 5" d="M61.037,114.2V101h4.38a7.619,7.619,0,0,1,4.7,1.631,5.731,5.731,0,0,1,1.622,2.088,7.046,7.046,0,0,1,0,5.76,5.714,5.714,0,0,1-1.622,2.088,7.619,7.619,0,0,1-4.7,1.631Zm1.342-11.967v10.737h2.61a7.187,7.187,0,0,0,2.609-.447,4.908,4.908,0,0,0,1.865-1.212,5.287,5.287,0,0,0,1.072-1.715,5.662,5.662,0,0,0,0-3.989,5.3,5.3,0,0,0-1.072-1.715,4.915,4.915,0,0,0-1.865-1.211,7.187,7.187,0,0,0-2.609-.447Z" transform="translate(863.556 -413.52)" fill="#fffbf5" stroke="#fff" stroke-width="1"/>
    <path id="Path_6" data-name="Path 6" d="M82.44,101v11.967h6.151V114.2H81.1V101Z" transform="translate(857.494 -413.52)" fill="#fffbf5" stroke="#fff" stroke-width="1"/>
    <path id="Path_7" data-name="Path 7" d="M95.8,107.952v5.015h7.065v1.23H94.454V101h8.183v1.23H95.8v4.493h6.393v1.23Z" transform="translate(853.458 -413.52)" fill="#fffbf5" stroke="#fff" stroke-width="1"/>
    <path id="Path_8" data-name="Path 8" d="M121.289,102.23V114.2h-1.342V102.23H115.53V101h10.178v1.23Z" transform="translate(847.09 -413.52)" fill="#fffbf5" stroke="#fff" stroke-width="1"/>
    <path id="Path_9" data-name="Path 9" d="M131.68,110.73l-1.442,3.467h-1.566l5.742-13.2h1.3l5.741,13.2h-1.566l-1.456-3.467Zm3.394-8.162-2.882,6.931h5.727Z" transform="translate(843.118 -413.52)" fill="#fffbf5" stroke="#fff" stroke-width="1"/>
    <path id="Path_10" data-name="Path 10" d="M150.9,108.065V114.2h-1.342V101h4.063a5.079,5.079,0,0,1,3.2.895,3.13,3.13,0,0,1,1.147,2.629,3.263,3.263,0,0,1-.895,2.339,3.7,3.7,0,0,1-2.479,1.072l3.8,6.263h-1.64l-3.615-6.132Zm0-5.835v4.6h2.386a3.84,3.84,0,0,0,2.461-.634,2.069,2.069,0,0,0,.764-1.677,2.046,2.046,0,0,0-.764-1.669,3.883,3.883,0,0,0-2.461-.625Z" transform="translate(836.806 -413.52)" fill="#fffbf5" stroke="#fff" stroke-width="1"/>
    <path id="Path_11" data-name="Path 11" d="M175.769,102.29l-1.007.987A4.926,4.926,0,0,0,171,101.749a5.014,5.014,0,0,0-3.943,1.669,6.236,6.236,0,0,0,0,8.072A5.016,5.016,0,0,0,171,113.157a7.259,7.259,0,0,0,3.653-.932v-4.418H171.5v-1.23h4.493v6.469a9.589,9.589,0,0,1-5,1.342,6.657,6.657,0,0,1-4.922-1.966,7.285,7.285,0,0,1,0-9.936A6.657,6.657,0,0,1,171,100.519a6.448,6.448,0,0,1,4.772,1.771" transform="translate(832.407 -413.374)" fill="#fffbf5" stroke="#fff" stroke-width="1"/>
    <path id="Path_12" data-name="Path 12" d="M196.7,102.485a7.284,7.284,0,0,1,0,9.935,7.14,7.14,0,0,1-9.843,0,7.284,7.284,0,0,1,0-9.935,7.142,7.142,0,0,1,9.843,0m-.979,9a6.236,6.236,0,0,0,0-8.072,5.492,5.492,0,0,0-7.885,0,6.236,6.236,0,0,0,0,8.072,5.492,5.492,0,0,0,7.885,0" transform="translate(826.127 -413.374)" fill="#fffbf5" stroke="#fff" stroke-width="1"/>
    <path id="Path_13" data-name="Path 13" d="M207.393,101l3.164,11.3h.038l3.317-11.3h1.6l3.317,11.3.024,0L222,101h1.3L219.6,114.2h-1.566l-3.317-11.3-.057-.006-3.32,11.3h-1.715L205.9,101Z" transform="translate(819.783 -413.52)" fill="#fffbf5" stroke="#fff" stroke-width="1"/>
    <path id="Path_14" data-name="Path 14" d="M235.019,107.952v5.015h7.065v1.23h-8.407V101h8.183v1.23h-6.841v4.493h6.393v1.23Z" transform="translate(811.388 -413.52)" fill="#fffbf5" stroke="#fff" stroke-width="1"/>
    <path id="Path_15" data-name="Path 15" d="M94.965,140.837v-2.4l-.75.656v-.677l.75-.65v-4.307h.687v3.71l2.246-1.95,0,.645-2.25,1.97v2.373h3.437v.625Z" transform="translate(853.531 -423.329)" fill="#fffbf5" stroke="#fff" stroke-width="1"/>
    <path id="Path_16" data-name="Path 16" d="M108.841,140.837l3.218-7.373h.708l3.1,7.373h-.77l-.8-1.957h-3.9l-.835,1.957Zm5.2-2.583-1.658-4.038-1.721,4.038Z" transform="translate(849.111 -423.33)" fill="#fffbf5" stroke="#fff" stroke-width="1"/>
    <path id="Path_17" data-name="Path 17" d="M127.242,139.829l.656-.438a1.83,1.83,0,0,0,1.687.927,1.78,1.78,0,0,0,1.182-.4,1.3,1.3,0,0,0,.474-1.051,1.139,1.139,0,0,0-.281-.791,1.644,1.644,0,0,0-.7-.456l-.916-.313q-.5-.17-.919-.362a1.635,1.635,0,0,1-.7-.636,2.009,2.009,0,0,1-.281-1.1,1.781,1.781,0,0,1,.687-1.479,2.625,2.625,0,0,1,1.676-.542,2.381,2.381,0,0,1,2.01.927l-.594.426a1.671,1.671,0,0,0-1.437-.729,1.9,1.9,0,0,0-1.182.362,1.211,1.211,0,0,0-.474,1.022,1.266,1.266,0,0,0,.209.744,1.373,1.373,0,0,0,.551.46,6.067,6.067,0,0,0,.738.285l.808.255a3.239,3.239,0,0,1,.747.343,1.541,1.541,0,0,1,.541.61,2.088,2.088,0,0,1,.207.971,1.863,1.863,0,0,1-.672,1.515,2.454,2.454,0,0,1-1.619.558,2.742,2.742,0,0,1-2.4-1.114" transform="translate(843.551 -423.248)" fill="#fffbf5" stroke="#fff" stroke-width="1"/>
    <path id="Path_18" data-name="Path 18" d="M143.659,140.837v-7.374h.687v3.25h.06l3.575-3.25h.948l-3.729,3.375,3.937,4h-.99l-3.738-3.811h-.064v3.811Z" transform="translate(838.59 -423.329)" fill="#fffbf5" stroke="#fff" stroke-width="1"/>
    <rect id="Rectangle_2" data-name="Rectangle 2" width="20.499" height="0.625" transform="translate(917.93 -286.492)" fill="#fffbf5" stroke="#fff" stroke-width="1"/>
    <rect id="Rectangle_3" data-name="Rectangle 3" width="20.499" height="0.625" transform="translate(997.044 -286.492)" fill="#fffbf5" stroke="#fff" stroke-width="1"/>
  </g>
</svg>
