<svg xmlns="http://www.w3.org/2000/svg" width="319.29" height="187.5" viewBox="0 0 319.29 187.5">
  <g id="Group_737" data-name="Group 737" transform="translate(-882 383)">
    <path id="Path_1" data-name="Path 1" d="M113.986,100.044H59.565V72.753C56.6,71.461,52.417,69.3,52.226,69.2c-.385-.179-10.347-4.961-11.524-15.052-1.063-9.122,5.424-19.322,19.28-30.317l.683-.542.683.542c13.857,11,20.343,21.2,19.279,30.317C79.451,64.243,69.49,69.025,69.066,69.222l-.936-1.991c.092-.043,9.292-4.482,10.315-13.352.942-8.165-5.038-17.508-17.779-27.774C47.924,36.371,41.943,45.714,42.885,53.879,43.909,62.75,53.107,67.189,53.2,67.232s5.013,2.588,7.886,3.777l.678.282V97.844h50.021V16.883h17.7V0h73.8V79.93H254.4v2.2h-53.31V2.2h-69.4V16.883h53.906V91.093H129.482V19.083h-15.5Zm17.7-11.15h51.706V19.084H131.682Z" transform="translate(894.152 -383)" fill="#fffbf5"/>
    <path id="Path_2" data-name="Path 2" d="M21.971,104.181a13.563,13.563,0,0,1,0,18.5,12.391,12.391,0,0,1-9.165,3.663,12.391,12.391,0,0,1-9.163-3.663,13.563,13.563,0,0,1,0-18.5,12.4,12.4,0,0,1,9.163-3.662,12.4,12.4,0,0,1,9.165,3.662m-1.823,16.765a11.611,11.611,0,0,0,0-15.03,9.341,9.341,0,0,0-7.342-3.107,9.34,9.34,0,0,0-7.34,3.107,11.611,11.611,0,0,0,0,15.03,9.336,9.336,0,0,0,7.34,3.107,9.337,9.337,0,0,0,7.342-3.107" transform="translate(882 -352.906)" fill="#fffbf5"/>
    <path id="Path_3" data-name="Path 3" d="M37.743,103.5l-2.188,1.7a5.39,5.39,0,0,0-4.753-2.4,6.086,6.086,0,0,0-3.68,1.138,3.809,3.809,0,0,0-1.562,3.277,3.552,3.552,0,0,0,1.311,2.878,9.781,9.781,0,0,0,3.135,1.7l3.7,1.253a6.982,6.982,0,0,1,3.164,2.175,6,6,0,0,1,1.294,3.994,6.255,6.255,0,0,1-2.482,5.153,8.811,8.811,0,0,1-5.606,1.962,9,9,0,0,1-7.74-3.645l2.256-1.632a5.975,5.975,0,0,0,5.589,2.986,5.963,5.963,0,0,0,3.645-1.215,3.868,3.868,0,0,0,1.631-3.263,3.914,3.914,0,0,0-.937-2.69,5.435,5.435,0,0,0-2.325-1.542l-3.038-1.059q-1.649-.575-3.038-1.2a5.447,5.447,0,0,1-2.325-2.048,6.3,6.3,0,0,1-.938-3.54,6.139,6.139,0,0,1,2.344-5.172,8.911,8.911,0,0,1,5.606-1.8,8.751,8.751,0,0,1,6.941,2.985" transform="translate(888.686 -352.906)" fill="#fffbf5"/>
    <rect id="Rectangle_1" data-name="Rectangle 1" width="2.499" height="24.575" transform="translate(931.912 -251.763)" fill="#fffbf5"/>
    <path id="Path_4" data-name="Path 4" d="M47.963,113.946v9.337H61.118v2.291H45.464V101H60.7v2.291H47.963v8.365h11.9v2.291Z" transform="translate(895.611 -352.762)" fill="#fffbf5"/>
    <path id="Path_5" data-name="Path 5" d="M61.037,125.574V101h8.156a14.187,14.187,0,0,1,8.746,3.037,10.672,10.672,0,0,1,3.02,3.888,13.119,13.119,0,0,1,0,10.725,10.639,10.639,0,0,1-3.02,3.888,14.187,14.187,0,0,1-8.746,3.037Zm2.5-22.283v19.992H68.4a13.383,13.383,0,0,0,4.858-.832,9.138,9.138,0,0,0,3.472-2.257,9.846,9.846,0,0,0,2-3.194,10.543,10.543,0,0,0,0-7.427,9.873,9.873,0,0,0-2-3.194,9.151,9.151,0,0,0-3.472-2.256,13.382,13.382,0,0,0-4.858-.833Z" transform="translate(900.274 -352.762)" fill="#fffbf5"/>
    <path id="Path_6" data-name="Path 6" d="M83.6,101v22.283H95.051v2.292H81.1V101Z" transform="translate(906.28 -352.762)" fill="#fffbf5"/>
    <path id="Path_7" data-name="Path 7" d="M96.953,113.946v9.337h13.155v2.291H94.454V101h15.237v2.291H96.953v8.365h11.9v2.291Z" transform="translate(910.278 -352.762)" fill="#fffbf5"/>
    <path id="Path_8" data-name="Path 8" d="M126.255,103.29v22.283h-2.5V103.29H115.53V101h18.952v2.291Z" transform="translate(916.588 -352.762)" fill="#fffbf5"/>
    <path id="Path_9" data-name="Path 9" d="M134.272,119.119l-2.685,6.455h-2.916L139.363,101h2.43l10.69,24.574h-2.916l-2.71-6.455Zm6.319-15.2-5.366,12.905h10.664Z" transform="translate(920.523 -352.762)" fill="#fffbf5"/>
    <path id="Path_10" data-name="Path 10" d="M152.06,114.155v11.419h-2.5V101h7.566a9.458,9.458,0,0,1,5.952,1.666,5.828,5.828,0,0,1,2.135,4.895,6.075,6.075,0,0,1-1.666,4.356,6.889,6.889,0,0,1-4.617,2l7.08,11.662h-3.054l-6.731-11.419Zm0-10.864v8.573H156.5a7.15,7.15,0,0,0,4.582-1.181,3.854,3.854,0,0,0,1.423-3.122,3.809,3.809,0,0,0-1.423-3.107,7.23,7.23,0,0,0-4.582-1.163Z" transform="translate(926.776 -352.762)" fill="#fffbf5"/>
    <path id="Path_11" data-name="Path 11" d="M185.812,103.817l-1.875,1.839a9.172,9.172,0,0,0-7.01-2.846,9.337,9.337,0,0,0-7.342,3.107,11.611,11.611,0,0,0,0,15.03,9.34,9.34,0,0,0,7.342,3.106,13.517,13.517,0,0,0,6.8-1.736V114.09h-5.865V111.8h8.365v12.045a17.855,17.855,0,0,1-9.3,2.5,12.4,12.4,0,0,1-9.165-3.662,13.564,13.564,0,0,1,0-18.5,12.4,12.4,0,0,1,9.165-3.662,12.006,12.006,0,0,1,8.885,3.3" transform="translate(931.135 -352.906)" fill="#fffbf5"/>
    <path id="Path_12" data-name="Path 12" d="M206.872,104.181a13.563,13.563,0,0,1,0,18.5,13.294,13.294,0,0,1-18.328,0,13.563,13.563,0,0,1,0-18.5,13.3,13.3,0,0,1,18.328,0m-1.823,16.765a11.611,11.611,0,0,0,0-15.03,10.226,10.226,0,0,0-14.682,0,11.611,11.611,0,0,0,0,15.03,10.226,10.226,0,0,0,14.682,0" transform="translate(937.357 -352.906)" fill="#fffbf5"/>
    <path id="Path_13" data-name="Path 13" d="M208.683,101l5.891,21.034h.07L220.822,101h2.986l6.177,21.034.046-.008L235.885,101h2.425l-6.9,24.575h-2.916l-6.177-21.034-.107-.012-6.181,21.046h-3.194L205.9,101Z" transform="translate(943.643 -352.762)" fill="#fffbf5"/>
    <path id="Path_14" data-name="Path 14" d="M236.176,113.946v9.337h13.155v2.291H233.677V101h15.237v2.291H236.176v8.365h11.9v2.291Z" transform="translate(951.96 -352.762)" fill="#fffbf5"/>
    <path id="Path_15" data-name="Path 15" d="M95.611,147.194v-4.461l-1.4,1.221v-1.26l1.4-1.211v-8.02h1.28v6.909l4.181-3.63.008,1.2-4.189,3.668v4.418h6.4v1.164Z" transform="translate(910.206 -343.043)" fill="#fffbf5"/>
    <path id="Path_16" data-name="Path 16" d="M108.841,147.193l5.991-13.729h1.319l5.778,13.729H120.5l-1.5-3.645h-7.266l-1.554,3.645Zm9.679-4.809-3.087-7.518-3.2,7.518Z" transform="translate(914.585 -343.043)" fill="#fffbf5"/>
    <path id="Path_17" data-name="Path 17" d="M127.242,145.548l1.221-.815a3.407,3.407,0,0,0,3.142,1.726,3.313,3.313,0,0,0,2.2-.737,2.419,2.419,0,0,0,.882-1.957,2.12,2.12,0,0,0-.524-1.472,3.061,3.061,0,0,0-1.3-.848l-1.706-.583q-.926-.316-1.711-.674A3.045,3.045,0,0,1,128.135,139a3.741,3.741,0,0,1-.524-2.047,3.317,3.317,0,0,1,1.28-2.753,4.888,4.888,0,0,1,3.121-1.008,4.434,4.434,0,0,1,3.744,1.727l-1.106.794a3.111,3.111,0,0,0-2.675-1.358,3.532,3.532,0,0,0-2.2.673,2.255,2.255,0,0,0-.882,1.9,2.357,2.357,0,0,0,.39,1.385,2.556,2.556,0,0,0,1.025.856,11.3,11.3,0,0,0,1.375.531l1.5.476a6.033,6.033,0,0,1,1.392.638,2.869,2.869,0,0,1,1.007,1.136,3.888,3.888,0,0,1,.385,1.807,3.469,3.469,0,0,1-1.251,2.821,4.569,4.569,0,0,1-3.015,1.038,5.105,5.105,0,0,1-4.461-2.075" transform="translate(920.094 -343.123)" fill="#fffbf5"/>
    <path id="Path_18" data-name="Path 18" d="M143.659,147.194V133.463h1.28v6.051h.112l6.657-6.051h1.765l-6.944,6.284,7.331,7.447h-1.843l-6.959-7.1h-.118v7.1Z" transform="translate(925.009 -343.043)" fill="#fffbf5"/>
    <rect id="Rectangle_2" data-name="Rectangle 2" width="38.169" height="1.164" transform="translate(948.903 -203.296)" fill="#fffbf5"/>
    <rect id="Rectangle_3" data-name="Rectangle 3" width="38.169" height="1.164" transform="translate(1096.218 -203.296)" fill="#fffbf5"/>
  </g>
</svg>
