<svg xmlns="http://www.w3.org/2000/svg" width="24.037" height="24.037" viewBox="0 0 24.037 24.037">
  <g id="Icon_feather-instagram" data-name="Icon feather-instagram" transform="translate(-2 -2)">
    <path id="Path_14839" data-name="Path 14839" d="M8.509,3H19.528a5.509,5.509,0,0,1,5.509,5.509V19.528a5.509,5.509,0,0,1-5.509,5.509H8.509A5.509,5.509,0,0,1,3,19.528V8.509A5.509,5.509,0,0,1,8.509,3Z" fill="none" stroke="currentColor" stroke-linecap="round" stroke-linejoin="round" stroke-width="2"/>
    <path id="Path_14840" data-name="Path 14840" d="M20.832,15.7a4.407,4.407,0,1,1-3.713-3.713A4.407,4.407,0,0,1,20.832,15.7Z" transform="translate(-2.406 -2.371)" fill="none" stroke="currentColor" stroke-linecap="round" stroke-linejoin="round" stroke-width="2"/>
    <path id="Path_14841" data-name="Path 14841" d="M26.25,9.75h0" transform="translate(-6.171 -1.792)" fill="none" stroke="currentColor" stroke-linecap="round" stroke-linejoin="round" stroke-width="2"/>
  </g>
</svg>
