<svg xmlns="http://www.w3.org/2000/svg" width="155.979" height="91.597" viewBox="0 0 155.979 91.597">
  <g id="Group_3" data-name="Group 3" transform="translate(-882 383)">
    <path id="Path_1" data-name="Path 1" d="M76.445,48.873H49.859V35.541c-1.449-.631-3.492-1.685-3.585-1.734-.188-.088-5.055-2.424-5.63-7.353-.519-4.456,2.65-9.439,9.419-14.81l.334-.265.334.265C57.5,17.015,60.669,22,60.149,26.454c-.575,4.93-5.441,7.266-5.648,7.362l-.457-.972c.045-.021,4.539-2.189,5.039-6.523.46-3.989-2.461-8.553-8.686-13.568-6.225,5.015-9.146,9.579-8.686,13.568.5,4.334,4.994,6.5,5.039,6.523S49.2,34.108,50.6,34.689l.331.138V47.8H75.37V8.248h8.645V0H120.07V39.047h24.968v1.075H118.995V1.075H85.09V8.248h26.334V44.5H84.015V9.322h-7.57Zm8.645-5.447h25.259V9.323H85.09Z" transform="translate(867.175 -383)"/>
    <path id="Path_2" data-name="Path 2" d="M10.733,102.308a6.626,6.626,0,0,1,0,9.037,6.053,6.053,0,0,1-4.477,1.789,6.053,6.053,0,0,1-4.476-1.789,6.626,6.626,0,0,1,0-9.037,6.055,6.055,0,0,1,4.476-1.789,6.055,6.055,0,0,1,4.477,1.789m-.891,8.19a5.672,5.672,0,0,0,0-7.342,4.563,4.563,0,0,0-3.586-1.518,4.563,4.563,0,0,0-3.586,1.518,5.672,5.672,0,0,0,0,7.342,4.561,4.561,0,0,0,3.586,1.518A4.561,4.561,0,0,0,9.843,110.5" transform="translate(882 -419.712)"/>
    <path id="Path_3" data-name="Path 3" d="M29.86,101.977l-1.069.831a2.633,2.633,0,0,0-2.322-1.171,2.973,2.973,0,0,0-1.8.556,1.861,1.861,0,0,0-.763,1.6,1.735,1.735,0,0,0,.64,1.406,4.778,4.778,0,0,0,1.532.832l1.805.612a3.411,3.411,0,0,1,1.546,1.063,2.93,2.93,0,0,1,.632,1.951,3.056,3.056,0,0,1-1.212,2.518,4.3,4.3,0,0,1-2.738.958,4.4,4.4,0,0,1-3.781-1.781l1.1-.8a3.163,3.163,0,0,0,4.511.865,1.89,1.89,0,0,0,.8-1.594,1.912,1.912,0,0,0-.458-1.314,2.655,2.655,0,0,0-1.136-.753l-1.484-.517q-.806-.281-1.484-.587a2.661,2.661,0,0,1-1.136-1,3.078,3.078,0,0,1-.458-1.729,3,3,0,0,1,1.145-2.526,4.353,4.353,0,0,1,2.738-.882,4.275,4.275,0,0,1,3.391,1.458" transform="translate(873.844 -419.712)"/>
    <rect id="Rectangle_1" data-name="Rectangle 1" width="1.221" height="12.005" transform="translate(906.383 -318.889)"/>
    <path id="Path_4" data-name="Path 4" d="M46.685,107.324v4.561h6.426V113H45.464V101h7.443v1.119H46.685V106.2H52.5v1.119Z" transform="translate(865.395 -419.888)"/>
    <path id="Path_5" data-name="Path 5" d="M61.037,113V101h3.984a6.93,6.93,0,0,1,4.273,1.483,5.213,5.213,0,0,1,1.475,1.9,6.409,6.409,0,0,1,0,5.239,5.2,5.2,0,0,1-1.475,1.9A6.93,6.93,0,0,1,65.021,113Zm1.221-10.886v9.767h2.374a6.538,6.538,0,0,0,2.373-.406,4.464,4.464,0,0,0,1.7-1.1,4.81,4.81,0,0,0,.975-1.56,5.15,5.15,0,0,0,0-3.628,4.823,4.823,0,0,0-.975-1.56,4.47,4.47,0,0,0-1.7-1.1,6.537,6.537,0,0,0-2.373-.407Z" transform="translate(859.708 -419.888)"/>
    <path id="Path_6" data-name="Path 6" d="M82.319,101v10.886h5.6V113H81.1V101Z" transform="translate(852.381 -419.888)"/>
    <path id="Path_7" data-name="Path 7" d="M95.675,107.324v4.561H102.1V113H94.454V101H101.9v1.119H95.675V106.2h5.816v1.119Z" transform="translate(847.503 -419.888)"/>
    <path id="Path_8" data-name="Path 8" d="M120.769,102.119V113h-1.221V102.119H115.53V101h9.258v1.119Z" transform="translate(839.805 -419.888)"/>
    <path id="Path_9" data-name="Path 9" d="M131.408,109.851,130.1,113h-1.424l5.223-12h1.187l5.222,12H138.88l-1.324-3.154Zm3.087-7.424-2.622,6.3h5.21Z" transform="translate(835.005 -419.888)"/>
    <path id="Path_10" data-name="Path 10" d="M150.782,107.426V113h-1.221V101h3.7a4.62,4.62,0,0,1,2.908.814,2.847,2.847,0,0,1,1.043,2.391,2.968,2.968,0,0,1-.814,2.128,3.366,3.366,0,0,1-2.255.975L157.6,113h-1.492l-3.288-5.578Zm0-5.307v4.188h2.17a3.493,3.493,0,0,0,2.238-.577,1.882,1.882,0,0,0,.7-1.525,1.861,1.861,0,0,0-.7-1.518,3.532,3.532,0,0,0-2.238-.568Z" transform="translate(827.376 -419.888)"/>
    <path id="Path_11" data-name="Path 11" d="M174.716,102.13l-.916.9a4.481,4.481,0,0,0-3.425-1.39,4.561,4.561,0,0,0-3.586,1.518,5.672,5.672,0,0,0,0,7.342,4.563,4.563,0,0,0,3.586,1.517,6.6,6.6,0,0,0,3.323-.848v-4.019h-2.865v-1.119h4.087v5.884a8.722,8.722,0,0,1-4.544,1.221,6.055,6.055,0,0,1-4.477-1.789,6.626,6.626,0,0,1,0-9.038,6.055,6.055,0,0,1,4.477-1.789,5.865,5.865,0,0,1,4.341,1.611" transform="translate(822.059 -419.712)"/>
    <path id="Path_12" data-name="Path 12" d="M195.634,102.308a6.626,6.626,0,0,1,0,9.037,6.495,6.495,0,0,1-8.953,0,6.626,6.626,0,0,1,0-9.037,6.5,6.5,0,0,1,8.953,0m-.891,8.19a5.672,5.672,0,0,0,0-7.342,5,5,0,0,0-7.172,0,5.672,5.672,0,0,0,0,7.342,5,5,0,0,0,7.172,0" transform="translate(814.469 -419.712)"/>
    <path id="Path_13" data-name="Path 13" d="M207.258,101l2.878,10.276h.034L213.188,101h1.459l3.018,10.276.022,0L220.547,101h1.184L218.359,113h-1.424l-3.018-10.276-.052-.006L210.845,113h-1.56L205.9,101Z" transform="translate(806.801 -419.888)"/>
    <path id="Path_14" data-name="Path 14" d="M234.9,107.324v4.561h6.426V113h-7.647V101h7.443v1.119H234.9V106.2h5.816v1.119Z" transform="translate(796.654 -419.888)"/>
    <path id="Path_15" data-name="Path 15" d="M94.9,140.171v-2.179l-.682.6v-.616l.682-.592v-3.918h.625v3.375l2.043-1.774,0,.587-2.047,1.792V139.6h3.126v.569Z" transform="translate(847.59 -431.745)"/>
    <path id="Path_16" data-name="Path 16" d="M108.841,140.171l2.927-6.707h.644l2.823,6.707h-.7l-.731-1.781h-3.55l-.759,1.781Zm4.728-2.349-1.508-3.673-1.565,3.673Z" transform="translate(842.248 -431.745)"/>
    <path id="Path_17" data-name="Path 17" d="M127.242,139.23l.6-.4a1.665,1.665,0,0,0,1.535.843,1.619,1.619,0,0,0,1.075-.36,1.182,1.182,0,0,0,.431-.956,1.036,1.036,0,0,0-.256-.719,1.5,1.5,0,0,0-.637-.415l-.833-.285q-.452-.154-.836-.329a1.487,1.487,0,0,1-.639-.578,1.828,1.828,0,0,1-.256-1,1.62,1.62,0,0,1,.625-1.345,2.388,2.388,0,0,1,1.525-.493,2.166,2.166,0,0,1,1.829.844l-.54.388a1.52,1.52,0,0,0-1.307-.663,1.725,1.725,0,0,0-1.075.329,1.1,1.1,0,0,0-.431.93,1.151,1.151,0,0,0,.19.677,1.249,1.249,0,0,0,.5.418,5.519,5.519,0,0,0,.672.26l.735.232a2.947,2.947,0,0,1,.68.312,1.4,1.4,0,0,1,.492.555,1.9,1.9,0,0,1,.188.883,1.694,1.694,0,0,1-.611,1.378,2.232,2.232,0,0,1-1.473.507,2.494,2.494,0,0,1-2.179-1.014" transform="translate(835.528 -431.647)"/>
    <path id="Path_18" data-name="Path 18" d="M143.659,140.171v-6.708h.625v2.956h.055l3.252-2.956h.862l-3.392,3.07,3.581,3.638h-.9l-3.4-3.467h-.058v3.467Z" transform="translate(829.531 -431.745)"/>
    <rect id="Rectangle_2" data-name="Rectangle 2" width="18.646" height="0.569" transform="translate(914.683 -295.212)"/>
    <rect id="Rectangle_3" data-name="Rectangle 3" width="18.646" height="0.569" transform="translate(986.649 -295.212)"/>
  </g>
</svg>
