<svg xmlns="http://www.w3.org/2000/svg" width="16.903" height="16.903" viewBox="0 0 16.903 16.903">
  <path id="Icon_awesome-phone-alt" data-name="Icon awesome-phone-alt" d="M16.421,11.945l-3.7-1.585a.792.792,0,0,0-.924.228l-1.638,2a12.237,12.237,0,0,1-5.85-5.85l2-1.638a.79.79,0,0,0,.228-.924L4.955.479A.8.8,0,0,0,4.048.02L.614.813A.792.792,0,0,0,0,1.585,15.317,15.317,0,0,0,15.319,16.9a.792.792,0,0,0,.773-.614l.792-3.433A.8.8,0,0,0,16.421,11.945Z" transform="translate(0 0)" fill="currentColor"/>
</svg>
